<svg width="20" height="20" viewBox="0 0 20 20" fill="none" xmlns="http://www.w3.org/2000/svg">
<path d="M9 11H4C3.71667 11 3.47917 10.9042 3.2875 10.7125C3.09583 10.5208 3 10.2833 3 10C3 9.71667 3.09583 9.47917 3.2875 9.2875C3.47917 9.09583 3.71667 9 4 9H9V4C9 3.71667 9.09583 3.47917 9.2875 3.2875C9.47917 3.09583 9.71667 3 10 3C10.2833 3 10.5208 3.09583 10.7125 3.2875C10.9042 3.47917 11 3.71667 11 4V9H16C16.2833 9 16.5208 9.09583 16.7125 9.2875C16.9042 9.47917 17 9.71667 17 10C17 10.2833 16.9042 10.5208 16.7125 10.7125C16.5208 10.9042 16.2833 11 16 11H11V16C11 16.2833 10.9042 16.5208 10.7125 16.7125C10.5208 16.9042 10.2833 17 10 17C9.71667 17 9.47917 16.9042 9.2875 16.7125C9.09583 16.5208 9 16.2833 9 16V11Z" fill="#09090B"/>
</svg>
