<svg width="20" height="20" viewBox="0 0 20 20" fill="none" xmlns="http://www.w3.org/2000/svg">
<path d="M13.3612 10.8089H4.77047C4.55217 10.8089 4.36918 10.7314 4.22151 10.5764C4.07384 10.4213 4 10.2292 4 10C4 9.77081 4.07384 9.57869 4.22151 9.42365C4.36918 9.2686 4.55217 9.19108 4.77047 9.19108H13.3612L11.1653 6.88567C11.0112 6.72389 10.9374 6.53514 10.9438 6.31943C10.9502 6.10372 11.0241 5.91497 11.1653 5.75319C11.3194 5.59141 11.5024 5.50715 11.7143 5.5004C11.9262 5.49366 12.1091 5.57118 12.2632 5.73297L15.7881 9.43376C15.8652 9.51465 15.9197 9.60228 15.9518 9.69666C15.9839 9.79103 16 9.89214 16 10C16 10.1079 15.9839 10.209 15.9518 10.3033C15.9197 10.3977 15.8652 10.4853 15.7881 10.5662L12.2632 14.267C12.1091 14.4288 11.9262 14.5063 11.7143 14.4996C11.5024 14.4929 11.3194 14.4086 11.1653 14.2468C11.0241 14.085 10.9502 13.8963 10.9438 13.6806C10.9374 13.4649 11.0112 13.2761 11.1653 13.1143L13.3612 10.8089Z" fill="#09090B"/>
</svg>
