<svg width="20" height="20" viewBox="0 0 20 20" xmlns="http://www.w3.org/2000/svg">
<path d="M5.1875 14.9C4.99271 14.9 4.82943 14.8329 4.69766 14.6988C4.56589 14.5646 4.5 14.3983 4.5 14.2C4.5 14.0017 4.56589 13.8354 4.69766 13.7013C4.82943 13.5671 4.99271 13.5 5.1875 13.5H5.875V8.6C5.875 7.63167 6.16146 6.77125 6.73438 6.01875C7.30729 5.26625 8.05208 4.77333 8.96875 4.54V4.05C8.96875 3.75833 9.06901 3.51042 9.26953 3.30625C9.47005 3.10208 9.71354 3 10 3C10.2865 3 10.5299 3.10208 10.7305 3.30625C10.931 3.51042 11.0313 3.75833 11.0313 4.05V4.54C11.9479 4.77333 12.6927 5.26625 13.2656 6.01875C13.8385 6.77125 14.125 7.63167 14.125 8.6V13.5H14.8125C15.0073 13.5 15.1706 13.5671 15.3023 13.7013C15.4341 13.8354 15.5 14.0017 15.5 14.2C15.5 14.3983 15.4341 14.5646 15.3023 14.6988C15.1706 14.8329 15.0073 14.9 14.8125 14.9H5.1875ZM10 17C9.62188 17 9.29818 16.8629 9.02891 16.5888C8.75964 16.3146 8.625 15.985 8.625 15.6H11.375C11.375 15.985 11.2404 16.3146 10.9711 16.5888C10.7018 16.8629 10.3781 17 10 17ZM7.25 13.5H12.75V8.6C12.75 7.83 12.4807 7.17083 11.9422 6.6225C11.4036 6.07417 10.7563 5.8 10 5.8C9.24375 5.8 8.59635 6.07417 8.05781 6.6225C7.51927 7.17083 7.25 7.83 7.25 8.6V13.5Z"/>
</svg>
