<svg width="20" height="20" viewBox="0 0 20 20" xmlns="http://www.w3.org/2000/svg">
<path d="M9.64706 17C9.25882 17 8.92647 16.8629 8.65 16.5887C8.37353 16.3146 8.23529 15.985 8.23529 15.6H11.0588C11.0588 15.985 10.9206 16.3146 10.6441 16.5887C10.3676 16.8629 10.0353 17 9.64706 17ZM4.70588 14.9C4.50588 14.9 4.33824 14.8329 4.20294 14.6987C4.06765 14.5646 4 14.3983 4 14.2C4 14.0017 4.06765 13.8354 4.20294 13.7013C4.33824 13.5671 4.50588 13.5 4.70588 13.5H5.41176V8.6C5.41176 7.63167 5.70588 6.77125 6.29412 6.01875C6.88235 5.26625 7.64706 4.77333 8.58824 4.54V4.05C8.58824 3.75833 8.69118 3.51042 8.89706 3.30625C9.10294 3.10208 9.35294 3 9.64706 3C9.94118 3 10.1912 3.10208 10.3971 3.30625C10.6029 3.51042 10.7059 3.75833 10.7059 4.05V4.2775C10.5765 4.53417 10.4824 4.79667 10.4235 5.065C10.3647 5.33333 10.3412 5.6075 10.3529 5.8875C10.2353 5.86417 10.1206 5.84375 10.0088 5.82625C9.89706 5.80875 9.77647 5.8 9.64706 5.8C8.87059 5.8 8.20588 6.07417 7.65294 6.6225C7.1 7.17083 6.82353 7.83 6.82353 8.6V13.5H12.4706V9.0025C12.6824 9.09583 12.9088 9.16875 13.15 9.22125C13.3912 9.27375 13.6353 9.3 13.8824 9.3V13.5H14.5882C14.7882 13.5 14.9559 13.5671 15.0912 13.7013C15.2265 13.8354 15.2941 14.0017 15.2941 14.2C15.2941 14.3983 15.2265 14.5646 15.0912 14.6987C14.9559 14.8329 14.7882 14.9 14.5882 14.9H4.70588ZM12.3824 7.2875C11.9706 6.87917 11.7647 6.38333 11.7647 5.8C11.7647 5.21667 11.9706 4.72083 12.3824 4.3125C12.7941 3.90417 13.2941 3.7 13.8824 3.7C14.4706 3.7 14.9706 3.90417 15.3824 4.3125C15.7941 4.72083 16 5.21667 16 5.8C16 6.38333 15.7941 6.87917 15.3824 7.2875C14.9706 7.69583 14.4706 7.9 13.8824 7.9C13.2941 7.9 12.7941 7.69583 12.3824 7.2875Z"/>
</svg>
