<svg id="Layer_2" data-name="Layer 2" xmlns="http://www.w3.org/2000/svg" viewBox="0 0 298.6 150.72">
  <g id="Layer_1-2" data-name="Layer 1">
    <g>
      <g>
        <path class="fill-zinc-950 dark:fill-zinc-50" d="M17.17,85.15l-7.28-7.28c-.56-.56-1.59-.56-2.15,0l-7.31,7.31c-.28.28-.44.66-.44,1.06v44.83c0,.4.16.78.44,1.06l7.28,7.28c.29.29.68.44,1.06.44,0,0,.02,0,.03,0,.38,0,.77-.15,1.06-.44l7.31-7.31c.28-.28.44-.66.44-1.06v-44.83c0-.4-.16-.78-.44-1.06Z"/>
        <path class="fill-zinc-950 dark:fill-zinc-50" d="M81.95,85.15l-7.28-7.28c-.56-.56-1.59-.56-2.15,0l-7.31,7.31c-.28.28-.44.66-.44,1.06v44.83c0,.4.16.78.44,1.06l7.28,7.28c.29.29.68.44,1.06.44,0,0,.02,0,.03,0,.38,0,.77-.15,1.06-.44l7.31-7.31c.28-.28.44-.66.44-1.06v-44.83c0-.4-.16-.78-.44-1.06Z"/>
      </g>
      <g>
        <path class="fill-zinc-950 dark:fill-zinc-50" d="M17.17,18.59l-7.28-7.28c-.56-.56-1.59-.56-2.15,0L.44,18.62c-.28.28-.44.66-.44,1.06v44.83c0,.4.16.78.44,1.06l7.28,7.28c.29.29.68.44,1.06.44,0,0,.02,0,.03,0,.38,0,.77-.15,1.06-.44l7.31-7.31c.28-.28.44-.66.44-1.06V19.65c0-.4-.16-.78-.44-1.06Z"/>
        <path class="cls-1 fill-zinc-200 dark:fill-zinc-800" d="M81.95,18.59l-7.28-7.28c-.56-.56-1.59-.56-2.15,0l-7.31,7.31c-.28.28-.44.66-.44,1.06v44.83c0,.4.16.78.44,1.06l7.28,7.28c.29.29.68.44,1.06.44,0,0,.02,0,.03,0,.38,0,.77-.15,1.06-.44l7.31-7.31c.28-.28.44-.66.44-1.06V19.65c0-.4-.16-.78-.44-1.06Z"/>
      </g>
      <g>
        <path class="fill-zinc-950 dark:fill-zinc-50" d="M71.96,74.3l-7.31-7.31c-.28-.28-.66-.44-1.06-.44H18.76c-.4,0-.78.16-1.06.44l-7.28,7.28c-.28.28-.44.69-.44,1.09s.16.78.44,1.06l7.31,7.31c.28.28.66.44,1.06.44h44.83c.4,0,.78-.16,1.06-.44l7.28-7.28c.3-.3.44-.69.44-1.07,0-.39-.14-.78-.44-1.07Z"/>
        <path class="fill-zinc-950 dark:fill-zinc-50" d="M71.96,140.86l-7.31-7.31c-.28-.28-.66-.44-1.06-.44H18.76c-.4,0-.78.16-1.06.44l-7.28,7.28c-.28.28-.44.69-.44,1.09s.16.78.44,1.06l7.31,7.31c.28.28.66.44,1.06.44h44.83c.4,0,.78-.16,1.06-.44l7.28-7.28c.3-.3.44-.69.44-1.07,0-.39-.14-.78-.44-1.07Z"/>
        <path class="cls-1 fill-zinc-200 dark:fill-zinc-800" d="M71.96,7.75l-7.31-7.31C64.38.16,64,0,63.6,0H18.76C18.37,0,17.98.16,17.7.44l-7.28,7.28c-.28.28-.44.69-.44,1.09s.16.78.44,1.06l7.31,7.31c.28.28.66.44,1.06.44h44.83c.4,0,.78-.16,1.06-.44l7.28-7.28c.3-.3.44-.69.44-1.07,0-.39-.14-.78-.44-1.07Z"/>
      </g>
    </g>
    <g>
      <g>
        <path class="fill-zinc-950 dark:fill-zinc-50" d="M125.28,65.57l-7.28,7.28c-.56.56-1.59.56-2.15,0l-7.31-7.31c-.28-.28-.44-.66-.44-1.06V19.65c0-.4.16-.78.44-1.06l7.28-7.28c.29-.29.68-.44,1.06-.44,0,0,.02,0,.03,0,.38,0,.77.15,1.06.44l7.31,7.31c.28.28.44.66.44,1.06v44.83c0,.4-.16.78-.44,1.06Z"/>
        <path class="fill-zinc-950 dark:fill-zinc-50" d="M190.05,65.57l-7.28,7.28c-.56.56-1.59.56-2.15,0l-7.31-7.31c-.28-.28-.44-.66-.44-1.06V19.65c0-.4.16-.78.44-1.06l7.28-7.28c.29-.29.68-.44,1.06-.44,0,0,.02,0,.03,0,.38,0,.77.15,1.06.44l7.31,7.31c.28.28.44.66.44,1.06v44.83c0,.4-.16.78-.44,1.06Z"/>
      </g>
      <g>
        <path class="fill-zinc-950 dark:fill-zinc-50" d="M125.28,132.13l-7.28,7.28c-.56.56-1.59.56-2.15,0l-7.31-7.31c-.28-.28-.44-.66-.44-1.06v-44.83c0-.4.16-.78.44-1.06l7.28-7.28c.29-.29.68-.44,1.06-.44,0,0,.02,0,.03,0,.38,0,.77.15,1.06.44l7.31,7.31c.28.28.44.66.44,1.06v44.83c0,.4-.16.78-.44,1.06Z"/>
        <path class="cls-1 fill-zinc-200 dark:fill-zinc-800" d="M190.05,132.13l-7.28,7.28c-.56.56-1.59.56-2.15,0l-7.31-7.31c-.28-.28-.44-.66-.44-1.06v-44.83c0-.4.16-.78.44-1.06l7.28-7.28c.29-.29.68-.44,1.06-.44,0,0,.02,0,.03,0,.38,0,.77.15,1.06.44l7.31,7.31c.28.28.44.66.44,1.06v44.83c0,.4-.16.78-.44,1.06Z"/>
      </g>
      <g>
        <path class="fill-zinc-950 dark:fill-zinc-50" d="M180.07,76.42l-7.31,7.31c-.28.28-.66.44-1.06.44h-44.83c-.4,0-.78-.16-1.06-.44l-7.28-7.28c-.28-.28-.44-.69-.44-1.09s.16-.78.44-1.06l7.31-7.31c.28-.28.66-.44,1.06-.44h44.83c.4,0,.78.16,1.06.44l7.28,7.28c.3.3.44.69.44,1.07,0,.39-.14.78-.44,1.07Z"/>
        <path class="fill-zinc-950 dark:fill-zinc-50" d="M180.07,9.87l-7.31,7.31c-.28.28-.66.44-1.06.44h-44.83c-.4,0-.78-.16-1.06-.44l-7.28-7.28c-.28-.28-.44-.69-.44-1.09s.16-.78.44-1.06l7.31-7.31C126.12.16,126.5,0,126.9,0h44.83C172.13,0,172.51.16,172.79.44l7.28,7.28c.3.3.44.69.44,1.07,0,.39-.14.78-.44,1.07Z"/>
        <path class="cls-1 fill-zinc-200 dark:fill-zinc-800" d="M180.07,142.98l-7.31,7.31c-.28.28-.66.44-1.06.44h-44.83c-.4,0-.78-.16-1.06-.44l-7.28-7.28c-.28-.28-.44-.69-.44-1.09s.16-.78.44-1.06l7.31-7.31c.28-.28.66-.44,1.06-.44h44.83c.4,0,.78.16,1.06.44l7.28,7.28c.3.3.44.69.44,1.07,0,.39-.14.78-.44,1.07Z"/>
      </g>
    </g>
    <g>
      <path class="cls-1 fill-zinc-200 dark:fill-zinc-800" d="M233.38,65.57l-7.28,7.28c-.56.56-1.59.56-2.15,0l-7.31-7.31c-.28-.28-.44-.66-.44-1.06V19.65c0-.4.16-.78.44-1.06l7.28-7.28c.29-.29.68-.44,1.06-.44,0,0,.02,0,.03,0,.38,0,.77.15,1.06.44l7.31,7.31c.28.28.44.66.44,1.06v44.83c0,.4-.16.78-.44,1.06Z"/>
      <path class="cls-1 fill-zinc-200 dark:fill-zinc-800" d="M298.16,65.57l-7.28,7.28c-.56.56-1.59.56-2.15,0l-7.31-7.31c-.28-.28-.44-.66-.44-1.06V19.65c0-.4.16-.78.44-1.06l7.28-7.28c.29-.29.68-.44,1.06-.44,0,0,.02,0,.03,0,.38,0,.77.15,1.06.44l7.31,7.31c.28.28.44.66.44,1.06v44.83c0,.4-.16.78-.44,1.06Z"/>
      <path class="cls-1 fill-zinc-200 dark:fill-zinc-800" d="M233.38,132.13l-7.28,7.28c-.56.56-1.59.56-2.15,0l-7.31-7.31c-.28-.28-.44-.66-.44-1.06v-44.83c0-.4.16-.78.44-1.06l7.28-7.28c.29-.29.68-.44,1.06-.44,0,0,.02,0,.03,0,.38,0,.77.15,1.06.44l7.31,7.31c.28.28.44.66.44,1.06v44.83c0,.4-.16.78-.44,1.06Z"/>
      <path class="cls-1 fill-zinc-200 dark:fill-zinc-800" d="M298.16,132.13l-7.28,7.28c-.56.56-1.59.56-2.15,0l-7.31-7.31c-.28-.28-.44-.66-.44-1.06v-44.83c0-.4.16-.78.44-1.06l7.28-7.28c.29-.29.68-.44,1.06-.44,0,0,.02,0,.03,0,.38,0,.77.15,1.06.44l7.31,7.31c.28.28.44.66.44,1.06v44.83c0,.4-.16.78-.44,1.06Z"/>
      <path class="cls-1 fill-zinc-200 dark:fill-zinc-800" d="M288.17,76.42l-7.31,7.31c-.28.28-.66.44-1.06.44h-44.83c-.4,0-.78-.16-1.06-.44l-7.28-7.28c-.28-.28-.44-.69-.44-1.09s.16-.78.44-1.06l7.31-7.31c.28-.28.66-.44,1.06-.44h44.83c.4,0,.78.16,1.06.44l7.28,7.28c.3.3.44.69.44,1.07,0,.39-.14.78-.44,1.07Z"/>
      <path class="fill-zinc-950 dark:fill-zinc-50" d="M288.17,9.87l-7.31,7.31c-.28.28-.66.44-1.06.44h-44.83c-.4,0-.78-.16-1.06-.44l-7.28-7.28c-.28-.28-.44-.69-.44-1.09s.16-.78.44-1.06l7.31-7.31c.28-.28.66-.44,1.06-.44h44.83c.4,0,.78.16,1.06.44l7.28,7.28c.3.3.44.69.44,1.07,0,.39-.14.78-.44,1.07Z"/>
      <path class="fill-zinc-950 dark:fill-zinc-50" d="M256.34,74.92l-7.31-7.31c-.28-.28-.44-.66-.44-1.06V26.39c0-.4.16-.78.44-1.06l7.28-7.28c.28-.28.69-.44,1.09-.44s.78.16,1.06.44l7.31,7.31c.28.28.44.66.44,1.06v40.17c0,.4-.16.78-.44,1.06l-7.28,7.28c-.3.3-.69.44-1.07.44-.39,0-.78-.14-1.07-.44Z"/>
      <path class="fill-zinc-950 dark:fill-zinc-50" d="M256.34,132.67l-7.31-7.31c-.28-.28-.44-.66-.44-1.06v-40.17c0-.4.16-.78.44-1.06l7.28-7.28c.28-.28.69-.44,1.09-.44s.78.16,1.06.44l7.31,7.31c.28.28.44.66.44,1.06v40.17c0,.4-.16.78-.44,1.06l-7.28,7.28c-.3.3-.69.44-1.07.44-.39,0-.78-.14-1.07-.44Z"/>
      <path class="cls-1 fill-zinc-200 dark:fill-zinc-800" d="M288.17,142.98l-7.31,7.31c-.28.28-.66.44-1.06.44h-44.83c-.4,0-.78-.16-1.06-.44l-7.28-7.28c-.28-.28-.44-.69-.44-1.09s.16-.78.44-1.06l7.31-7.31c.28-.28.66-.44,1.06-.44h44.83c.4,0,.78.16,1.06.44l7.28,7.28c.3.3.44.69.44,1.07,0,.39-.14.78-.44,1.07Z"/>
    </g>
  </g>
</svg>