<svg width="20" height="20" viewBox="0 0 20 20" fill="none" xmlns="http://www.w3.org/2000/svg">
<path d="M2 6.11111V4.55556C2 4.12778 2.15667 3.76157 2.47 3.45694C2.78333 3.15231 3.16 3 3.6 3H16.4C16.84 3 17.2167 3.15231 17.53 3.45694C17.8433 3.76157 18 4.12778 18 4.55556V8.05556C18 8.27593 17.9233 8.46065 17.77 8.60972C17.6167 8.7588 17.4267 8.83333 17.2 8.83333C16.9733 8.83333 16.7833 8.7588 16.63 8.60972C16.4767 8.46065 16.4 8.27593 16.4 8.05556V4.55556H3.6V6.11111C3.6 6.33148 3.52333 6.5162 3.37 6.66528C3.21667 6.81435 3.02667 6.88889 2.8 6.88889C2.57333 6.88889 2.38333 6.81435 2.23 6.66528C2.07667 6.5162 2 6.33148 2 6.11111ZM6 13.1111C5.85333 13.1111 5.71333 13.0755 5.58 13.0042C5.44667 12.9329 5.34667 12.8259 5.28 12.6833L3.92 10H2.82C2.59333 10 2.40333 9.92546 2.25 9.77639C2.09667 9.62732 2.02 9.44259 2.02 9.22222C2.02 9.00185 2.09667 8.81713 2.25 8.66806C2.40333 8.51898 2.59333 8.44444 2.82 8.44444H4.42C4.56667 8.44444 4.70333 8.48333 4.83 8.56111C4.95667 8.63889 5.05333 8.74259 5.12 8.87222L6 10.5833L8.48 5.76111C8.54667 5.63148 8.64667 5.53426 8.78 5.46944C8.91333 5.40463 9.05333 5.37222 9.2 5.37222C9.34667 5.37222 9.48667 5.40463 9.62 5.46944C9.75333 5.53426 9.85333 5.63148 9.92 5.76111L11.26 8.36667C11.02 8.50926 10.79 8.65833 10.57 8.81389C10.35 8.96944 10.1467 9.14444 9.96 9.33889L9.2 7.86111L6.72 12.6833C6.65333 12.8259 6.55333 12.9329 6.42 13.0042C6.28667 13.0755 6.14667 13.1111 6 13.1111ZM3.6 15.4444C3.16 15.4444 2.78333 15.2921 2.47 14.9875C2.15667 14.6829 2 14.3167 2 13.8889V12.3333C2 12.113 2.07667 11.9282 2.23 11.7792C2.38333 11.6301 2.57333 11.5556 2.8 11.5556C3.02667 11.5556 3.21667 11.6301 3.37 11.7792C3.52333 11.9282 3.6 12.113 3.6 12.3333V13.8889H7.9C8.12667 13.8889 8.31667 13.9634 8.47 14.1125C8.62333 14.2616 8.7 14.4463 8.7 14.6667C8.7 14.887 8.62333 15.0718 8.47 15.2208C8.31667 15.3699 8.12667 15.4444 7.9 15.4444H3.6ZM11.17 15.8625C10.39 15.1042 10 14.187 10 13.1111C10 12.0352 10.39 11.1181 11.17 10.3597C11.95 9.60139 12.8933 9.22222 14 9.22222C15.1067 9.22222 16.05 9.60139 16.83 10.3597C17.61 11.1181 18 12.0352 18 13.1111C18 14.187 17.61 15.1042 16.83 15.8625C16.05 16.6208 15.1067 17 14 17C12.8933 17 11.95 16.6208 11.17 15.8625ZM15.7 12.0028C15.78 11.925 15.82 11.8343 15.82 11.7306C15.82 11.6269 15.78 11.5361 15.7 11.4583C15.62 11.3806 15.5267 11.3417 15.42 11.3417C15.3133 11.3417 15.22 11.3806 15.14 11.4583L13.88 12.6639C13.8 12.7417 13.76 12.8356 13.76 12.9458C13.76 13.056 13.8 13.15 13.88 13.2278C13.96 13.3056 14.0567 13.3444 14.17 13.3444C14.2833 13.3444 14.38 13.3056 14.46 13.2278L15.7 12.0028Z" fill="#09090B"/>
</svg>
