<?xml version="1.0" encoding="UTF-8"?>
<svg id="Layer_2" data-name="Layer 2" xmlns="http://www.w3.org/2000/svg" viewBox="0 0 193.96 97.91">
  <defs>
    <style>
      .cls-1 {
        fill: #fafafa;
      }

      .cls-2 {
        fill: #27272a;
      }
    </style>
  </defs>
  <g id="Layer_2-2" data-name="Layer 2">
    <g>
      <path class="cls-1" d="M11.16,55.31l-4.73-4.73c-.36-.36-1.03-.36-1.4,0L.29,55.33c-.18.18-.29.43-.29.69v29.12c0,.26.1.51.29.69l4.73,4.73c.19.19.44.29.69.29h.02c.25,0,.5-.1.69-.29l4.75-4.75c.18-.18.29-.43.29-.69v-29.12c0-.26-.1-.51-.29-.69Z"/>
      <path class="cls-1" d="M53.24,55.31l-4.73-4.73c-.36-.36-1.03-.36-1.4,0l-4.75,4.75c-.18.18-.29.43-.29.69v29.12c0,.26.1.51.29.69l4.73,4.73c.19.19.44.29.69.29h.02c.25,0,.5-.1.69-.29l4.75-4.75c.18-.18.29-.43.29-.69v-29.12c0-.26-.1-.51-.29-.69Z"/>
      <path class="cls-1" d="M11.16,12.08l-4.73-4.73c-.36-.36-1.03-.36-1.4,0L.29,12.09c-.18.18-.29.43-.29.69v29.12c0,.26.1.51.29.69l4.73,4.73c.19.19.44.29.69.29h.02c.25,0,.5-.1.69-.29l4.75-4.75c.18-.18.29-.43.29-.69V12.76c0-.26-.1-.51-.29-.69h0Z"/>
      <path class="cls-2" d="M53.24,12.08l-4.73-4.73c-.36-.36-1.03-.36-1.4,0l-4.75,4.75c-.18.18-.29.43-.29.69v29.12c0,.26.1.51.29.69l4.73,4.73c.19.19.44.29.69.29h.02c.25,0,.5-.1.69-.29l4.75-4.75c.18-.18.29-.43.29-.69V12.76c0-.26-.1-.51-.29-.69Z"/>
      <path class="cls-1" d="M46.75,48.26l-4.75-4.75c-.18-.18-.43-.29-.69-.29H12.19c-.26,0-.51.1-.69.29l-4.73,4.73c-.18.18-.29.45-.29.71s.1.51.29.69l4.75,4.75c.18.18.43.29.69.29h29.12c.26,0,.51-.1.69-.29l4.73-4.73c.19-.19.29-.45.29-.7s-.09-.51-.29-.7h0Z"/>
      <path class="cls-1" d="M46.75,91.5l-4.75-4.75c-.18-.18-.43-.29-.69-.29H12.19c-.26,0-.51.1-.69.29l-4.73,4.73c-.18.18-.29.45-.29.71s.1.51.29.69l4.75,4.75c.18.18.43.29.69.29h29.12c.26,0,.51-.1.69-.29l4.73-4.73c.19-.19.29-.45.29-.7s-.09-.51-.29-.7h0Z"/>
      <path class="cls-2" d="M46.75,5.03L42,.29C41.82.1,41.58,0,41.32,0H12.19C11.94,0,11.69.1,11.5.29l-4.73,4.73c-.18.18-.29.45-.29.71s.1.51.29.69l4.75,4.75c.18.18.43.29.69.29h29.12c.26,0,.51-.1.69-.29l4.73-4.73c.19-.19.29-.45.29-.7s-.09-.51-.29-.7h0Z"/>
      <path class="cls-1" d="M81.38,42.59l-4.73,4.73c-.36.36-1.03.36-1.4,0l-4.75-4.75c-.18-.18-.29-.43-.29-.69V12.76c0-.26.1-.51.29-.69l4.73-4.73c.19-.19.44-.29.69-.29h.02c.25,0,.5.1.69.29l4.75,4.75c.18.18.29.43.29.69v29.12c0,.26-.1.51-.29.69Z"/>
      <path class="cls-1" d="M123.45,42.59l-4.73,4.73c-.36.36-1.03.36-1.4,0l-4.75-4.75c-.18-.18-.29-.43-.29-.69V12.76c0-.26.1-.51.29-.69l4.73-4.73c.19-.19.44-.29.69-.29h.02c.25,0,.5.1.69.29l4.75,4.75c.18.18.29.43.29.69v29.12c0,.26-.1.51-.29.69Z"/>
      <path class="cls-1" d="M81.38,85.83l-4.73,4.73c-.36.36-1.03.36-1.4,0l-4.75-4.75c-.18-.18-.29-.43-.29-.69v-29.12c0-.26.1-.51.29-.69l4.73-4.73c.19-.19.44-.29.69-.29h.02c.25,0,.5.1.69.29l4.75,4.75c.18.18.29.43.29.69v29.12c0,.26-.1.51-.29.69Z"/>
      <path class="cls-2" d="M123.45,85.83l-4.73,4.73c-.36.36-1.03.36-1.4,0l-4.75-4.75c-.18-.18-.29-.43-.29-.69v-29.12c0-.26.1-.51.29-.69l4.73-4.73c.19-.19.44-.29.69-.29h.02c.25,0,.5.1.69.29l4.75,4.75c.18.18.29.43.29.69v29.12c0,.26-.1.51-.29.69Z"/>
      <path class="cls-1" d="M116.97,49.64l-4.75,4.75c-.18.18-.43.29-.69.29h-29.12c-.26,0-.51-.1-.69-.29l-4.73-4.73c-.18-.18-.29-.45-.29-.71s.1-.51.29-.69l4.75-4.75c.18-.18.43-.29.69-.29h29.12c.26,0,.51.1.69.29l4.73,4.73c.19.19.29.45.29.7s-.09.51-.29.7h0Z"/>
      <path class="cls-1" d="M116.97,6.41l-4.75,4.75c-.18.18-.43.29-.69.29h-29.12c-.26,0-.51-.1-.69-.29l-4.73-4.73c-.18-.18-.29-.45-.29-.71s.1-.51.29-.69l4.75-4.75C81.93.1,82.17,0,82.43,0h29.12c.26,0,.51.1.69.29l4.73,4.73c.19.19.29.45.29.7s-.09.51-.29.7h0Z"/>
      <path class="cls-2" d="M116.97,92.87l-4.75,4.75c-.18.18-.43.29-.69.29h-29.12c-.26,0-.51-.1-.69-.29l-4.73-4.73c-.18-.18-.29-.45-.29-.71s.1-.51.29-.69l4.75-4.75c.18-.18.43-.29.69-.29h29.12c.26,0,.51.1.69.29l4.73,4.73c.19.19.29.45.29.7s-.09.51-.29.7h0Z"/>
      <path class="cls-2" d="M151.6,42.59l-4.73,4.73c-.36.36-1.03.36-1.4,0l-4.75-4.75c-.18-.18-.29-.43-.29-.69V12.76c0-.26.1-.51.29-.69l4.73-4.73c.19-.19.44-.29.69-.29h.02c.25,0,.5.1.69.29l4.75,4.75c.18.18.29.43.29.69v29.12c0,.26-.1.51-.29.69Z"/>
      <path class="cls-2" d="M193.68,42.59l-4.73,4.73c-.36.36-1.03.36-1.4,0l-4.75-4.75c-.18-.18-.29-.43-.29-.69V12.76c0-.26.1-.51.29-.69l4.73-4.73c.19-.19.44-.29.69-.29h.02c.25,0,.5.1.69.29l4.75,4.75c.18.18.29.43.29.69v29.12c0,.26-.1.51-.29.69Z"/>
      <path class="cls-2" d="M151.6,85.83l-4.73,4.73c-.36.36-1.03.36-1.4,0l-4.75-4.75c-.18-.18-.29-.43-.29-.69v-29.12c0-.26.1-.51.29-.69l4.73-4.73c.19-.19.44-.29.69-.29h.02c.25,0,.5.1.69.29l4.75,4.75c.18.18.29.43.29.69v29.12c0,.26-.1.51-.29.69Z"/>
      <path class="cls-2" d="M193.68,85.83l-4.73,4.73c-.36.36-1.03.36-1.4,0l-4.75-4.75c-.18-.18-.29-.43-.29-.69v-29.12c0-.26.1-.51.29-.69l4.73-4.73c.19-.19.44-.29.69-.29h.02c.25,0,.5.1.69.29l4.75,4.75c.18.18.29.43.29.69v29.12c0,.26-.1.51-.29.69Z"/>
      <path class="cls-2" d="M187.19,49.64l-4.75,4.75c-.18.18-.43.29-.69.29h-29.12c-.26,0-.51-.1-.69-.29l-4.73-4.73c-.18-.18-.29-.45-.29-.71s.1-.51.29-.69l4.75-4.75c.18-.18.43-.29.69-.29h29.12c.26,0,.51.1.69.29l4.73,4.73c.19.19.29.45.29.7s-.09.51-.29.7h0Z"/>
      <path class="cls-1" d="M187.19,6.41l-4.75,4.75c-.18.18-.43.29-.69.29h-29.12c-.26,0-.51-.1-.69-.29l-4.73-4.73c-.18-.18-.29-.45-.29-.71s.1-.51.29-.69l4.75-4.75c.18-.18.43-.29.69-.29h29.12c.26,0,.51.1.69.29l4.73,4.73c.19.19.29.45.29.7s-.09.51-.29.7h0Z"/>
      <path class="cls-1" d="M166.51,48.66l-4.75-4.75c-.18-.18-.29-.43-.29-.69v-26.09c0-.26.1-.51.29-.69l4.73-4.73c.18-.18.45-.29.71-.29s.51.1.69.29l4.75,4.75c.18.18.29.43.29.69v26.09c0,.26-.1.51-.29.69l-4.73,4.73c-.19.19-.45.29-.7.29s-.51-.09-.7-.29h0Z"/>
      <path class="cls-1" d="M166.51,86.18l-4.75-4.75c-.18-.18-.29-.43-.29-.69v-26.09c0-.26.1-.51.29-.69l4.73-4.73c.18-.18.45-.29.71-.29s.51.1.69.29l4.75,4.75c.18.18.29.43.29.69v26.09c0,.26-.1.51-.29.69l-4.73,4.73c-.19.19-.45.29-.7.29s-.51-.09-.7-.29h0Z"/>
      <path class="cls-2" d="M187.19,92.87l-4.75,4.75c-.18.18-.43.29-.69.29h-29.12c-.26,0-.51-.1-.69-.29l-4.73-4.73c-.18-.18-.29-.45-.29-.71s.1-.51.29-.69l4.75-4.75c.18-.18.43-.29.69-.29h29.12c.26,0,.51.1.69.29l4.73,4.73c.19.19.29.45.29.7s-.09.51-.29.7h0Z"/>
    </g>
  </g>
</svg>