<svg width="20" height="20" viewBox="0 0 20 20"  xmlns="http://www.w3.org/2000/svg">
<path d="M8.33341 11.5729L13.2501 6.65625C13.4029 6.50347 13.5973 6.42708 13.8334 6.42708C14.0695 6.42708 14.264 6.50347 14.4167 6.65625C14.5695 6.80903 14.6459 7.00347 14.6459 7.23958C14.6459 7.47569 14.5695 7.67014 14.4167 7.82292L8.91675 13.3229C8.75008 13.4896 8.55564 13.5729 8.33341 13.5729C8.11119 13.5729 7.91675 13.4896 7.75008 13.3229L5.58341 11.1562C5.43064 11.0035 5.35425 10.809 5.35425 10.5729C5.35425 10.3368 5.43064 10.1424 5.58341 9.98958C5.73619 9.8368 5.93064 9.76042 6.16675 9.76042C6.40286 9.76042 6.5973 9.8368 6.75008 9.98958L8.33341 11.5729Z" />
</svg>
