<svg width="20" height="20" viewBox="0 0 20 20" fill="none" xmlns="http://www.w3.org/2000/svg">
<path d="M14.8 13.76V15.2C14.8 15.3067 14.84 15.4 14.92 15.48C15 15.56 15.0933 15.6 15.2 15.6C15.3067 15.6 15.4 15.56 15.48 15.48C15.56 15.4 15.6 15.3067 15.6 15.2V12.8C15.6 12.6933 15.56 12.6 15.48 12.52C15.4 12.44 15.3067 12.4 15.2 12.4H12.8C12.6933 12.4 12.6 12.44 12.52 12.52C12.44 12.6 12.4 12.6933 12.4 12.8C12.4 12.9067 12.44 13 12.52 13.08C12.6 13.16 12.6933 13.2 12.8 13.2H14.24L12.28 15.16C12.2 15.24 12.16 15.3333 12.16 15.44C12.16 15.5467 12.2 15.64 12.28 15.72C12.36 15.8 12.4533 15.84 12.56 15.84C12.6667 15.84 12.76 15.8 12.84 15.72L14.8 13.76ZM3.6 16.4C3.16 16.4 2.78333 16.2433 2.47 15.93C2.15667 15.6167 2 15.24 2 14.8V3.6C2 3.16 2.15667 2.78333 2.47 2.47C2.78333 2.15667 3.16 2 3.6 2H14.8C15.24 2 15.6167 2.15667 15.93 2.47C16.2433 2.78333 16.4 3.16 16.4 3.6V7.6C16.4 7.82667 16.3233 8.01667 16.17 8.17C16.0167 8.32333 15.8267 8.4 15.6 8.4C15.3733 8.4 15.1833 8.32333 15.03 8.17C14.8767 8.01667 14.8 7.82667 14.8 7.6V3.6H3.6V14.8H7.6C7.82667 14.8 8.01667 14.8767 8.17 15.03C8.32333 15.1833 8.4 15.3733 8.4 15.6C8.4 15.8267 8.32333 16.0167 8.17 16.17C8.01667 16.3233 7.82667 16.4 7.6 16.4H3.6ZM3.6 14V14.8V3.6V8.46V8.4V14ZM5.43 12.97C5.58333 13.1233 5.77333 13.2 6 13.2H7.66C7.88667 13.2 8.07667 13.1233 8.23 12.97C8.38333 12.8167 8.46 12.6267 8.46 12.4C8.46 12.1733 8.38333 11.9833 8.23 11.83C8.07667 11.6767 7.88667 11.6 7.66 11.6H6C5.77333 11.6 5.58333 11.6767 5.43 11.83C5.27667 11.9833 5.2 12.1733 5.2 12.4C5.2 12.6267 5.27667 12.8167 5.43 12.97ZM5.43 9.77C5.58333 9.92333 5.77333 10 6 10H10C10.2267 10 10.4167 9.92333 10.57 9.77C10.7233 9.61667 10.8 9.42667 10.8 9.2C10.8 8.97333 10.7233 8.78333 10.57 8.63C10.4167 8.47667 10.2267 8.4 10 8.4H6C5.77333 8.4 5.58333 8.47667 5.43 8.63C5.27667 8.78333 5.2 8.97333 5.2 9.2C5.2 9.42667 5.27667 9.61667 5.43 9.77ZM5.43 6.57C5.58333 6.72333 5.77333 6.8 6 6.8H12.4C12.6267 6.8 12.8167 6.72333 12.97 6.57C13.1233 6.41667 13.2 6.22667 13.2 6C13.2 5.77333 13.1233 5.58333 12.97 5.43C12.8167 5.27667 12.6267 5.2 12.4 5.2H6C5.77333 5.2 5.58333 5.27667 5.43 5.43C5.27667 5.58333 5.2 5.77333 5.2 6C5.2 6.22667 5.27667 6.41667 5.43 6.57ZM14 18C12.8933 18 11.95 17.61 11.17 16.83C10.39 16.05 10 15.1067 10 14C10 12.8933 10.39 11.95 11.17 11.17C11.95 10.39 12.8933 10 14 10C15.1067 10 16.05 10.39 16.83 11.17C17.61 11.95 18 12.8933 18 14C18 15.1067 17.61 16.05 16.83 16.83C16.05 17.61 15.1067 18 14 18Z" fill="#09090B"/>
</svg>
