<svg width="20" height="20" viewBox="0 0 20 20" fill="none" xmlns="http://www.w3.org/2000/svg">
<path d="M13.3166 4.98564C11.5209 3.45402 8.82148 3.10415 5.29124 3.94771C5.27975 3.94771 5.26826 3.95549 5.25678 3.95937C5.21083 3.97104 5.16871 3.99047 5.1266 4.00991C5.10745 4.02157 5.08831 4.02935 5.06916 4.04101C5.02704 4.06822 4.98493 4.09543 4.95047 4.13042C4.94281 4.13819 4.93515 4.14208 4.92749 4.14985C4.88537 4.19262 4.84709 4.24315 4.81645 4.29369C4.8088 4.30924 4.80114 4.32479 4.79348 4.34034C4.77051 4.3831 4.75136 4.42974 4.73988 4.47639C4.73988 4.48805 4.72839 4.49583 4.72839 4.50749C4.6901 4.66687 3.77499 8.41818 5.90003 11.1393C7.26312 12.8848 9.51451 13.7672 12.5929 13.7672C12.6504 13.7672 12.7116 13.7672 12.7691 13.7672C13.2668 15.015 13.5157 15.9013 13.5234 15.9286C13.6191 16.2745 13.9254 16.5 14.2623 16.5C14.3313 16.5 14.4002 16.4922 14.4653 16.4728C14.8711 16.3601 15.1124 15.9324 15.0013 15.5165C14.9056 15.1589 12.9146 8.01778 8.3467 5.06338C10.0391 4.9973 11.3792 5.35882 12.3249 6.16351C14.0824 7.65237 13.9714 10.2336 13.9675 10.2569C13.9445 10.6845 14.2662 11.0499 14.6874 11.0771C15.1124 11.1005 15.4723 10.7739 15.4953 10.3463C15.5029 10.2103 15.6599 6.97985 13.3166 4.98175V4.98564ZM12.0799 12.2045C9.76722 12.1189 8.09016 11.4425 7.10231 10.1869C5.94981 8.7175 5.96512 6.75439 6.08382 5.68147C8.89806 6.64943 10.8776 9.68546 12.0799 12.2084V12.2045Z" fill="#09090B"/>
</svg>
