<svg width="20" height="20" viewBox="0 0 20 20" fill="none" xmlns="http://www.w3.org/2000/svg">
<path d="M8.71429 12.6667V13.5556C8.71429 13.9259 8.83929 14.2407 9.08929 14.5C9.33929 14.7593 9.64286 14.8889 10 14.8889C10.3571 14.8889 10.6607 14.7593 10.9107 14.5C11.1607 14.2407 11.2857 13.9259 11.2857 13.5556V12.6667H12.1429C12.5 12.6667 12.8036 12.537 13.0536 12.2778C13.3036 12.0185 13.4286 11.7037 13.4286 11.3333C13.4286 10.963 13.3036 10.6481 13.0536 10.3889C12.8036 10.1296 12.5 10 12.1429 10H11.2857V9.11111C11.2857 8.74074 11.1607 8.42593 10.9107 8.16667C10.6607 7.90741 10.3571 7.77778 10 7.77778C9.64286 7.77778 9.33929 7.90741 9.08929 8.16667C8.83929 8.42593 8.71429 8.74074 8.71429 9.11111V10H7.85714C7.5 10 7.19643 10.1296 6.94643 10.3889C6.69643 10.6481 6.57143 10.963 6.57143 11.3333C6.57143 11.7037 6.69643 12.0185 6.94643 12.2778C7.19643 12.537 7.5 12.6667 7.85714 12.6667H8.71429ZM5.71429 18C5.24286 18 4.83929 17.8259 4.50357 17.4778C4.16786 17.1296 4 16.7111 4 16.2222V6.44444C4 5.95556 4.16786 5.53704 4.50357 5.18889C4.83929 4.84074 5.24286 4.66667 5.71429 4.66667H14.2857C14.7571 4.66667 15.1607 4.84074 15.4964 5.18889C15.8321 5.53704 16 5.95556 16 6.44444V16.2222C16 16.7111 15.8321 17.1296 15.4964 17.4778C15.1607 17.8259 14.7571 18 14.2857 18H5.71429ZM5.71429 16.2222H14.2857V6.44444H5.71429V16.2222ZM5.71429 3.77778C5.47143 3.77778 5.26786 3.69259 5.10357 3.52222C4.93929 3.35185 4.85714 3.14074 4.85714 2.88889C4.85714 2.63704 4.93929 2.42593 5.10357 2.25556C5.26786 2.08519 5.47143 2 5.71429 2H14.2857C14.5286 2 14.7321 2.08519 14.8964 2.25556C15.0607 2.42593 15.1429 2.63704 15.1429 2.88889C15.1429 3.14074 15.0607 3.35185 14.8964 3.52222C14.7321 3.69259 14.5286 3.77778 14.2857 3.77778H5.71429Z" fill="#09090B"/>
</svg>
