<svg width="20" height="20" viewBox="0 0 20 20" fill="none" xmlns="http://www.w3.org/2000/svg">
<path d="M2.88889 15.5C2.63704 15.5 2.42593 15.4122 2.25556 15.2365C2.08519 15.0608 2 14.8431 2 14.5833C2 14.3236 2.08519 14.1059 2.25556 13.9302C2.42593 13.7545 2.63704 13.6667 2.88889 13.6667H17.1111C17.363 13.6667 17.5741 13.7545 17.7444 13.9302C17.9148 14.1059 18 14.3236 18 14.5833C18 14.8431 17.9148 15.0608 17.7444 15.2365C17.5741 15.4122 17.363 15.5 17.1111 15.5H2.88889ZM2.88889 10.9167C2.63704 10.9167 2.42593 10.8288 2.25556 10.6531C2.08519 10.4774 2 10.2597 2 10C2 9.74028 2.08519 9.52257 2.25556 9.34688C2.42593 9.17118 2.63704 9.08333 2.88889 9.08333H17.1111C17.363 9.08333 17.5741 9.17118 17.7444 9.34688C17.9148 9.52257 18 9.74028 18 10C18 10.2597 17.9148 10.4774 17.7444 10.6531C17.5741 10.8288 17.363 10.9167 17.1111 10.9167H2.88889ZM2.88889 6.33333C2.63704 6.33333 2.42593 6.24549 2.25556 6.06979C2.08519 5.8941 2 5.67639 2 5.41667C2 5.15694 2.08519 4.93924 2.25556 4.76354C2.42593 4.58785 2.63704 4.5 2.88889 4.5H17.1111C17.363 4.5 17.5741 4.58785 17.7444 4.76354C17.9148 4.93924 18 5.15694 18 5.41667C18 5.67639 17.9148 5.8941 17.7444 6.06979C17.5741 6.24549 17.363 6.33333 17.1111 6.33333H2.88889Z" fill="#09090B"/>
</svg>
