<svg width="20" height="20" viewBox="0 0 20 20" fill="none" xmlns="http://www.w3.org/2000/svg">
<path d="M7.50004 16.6667C6.33955 16.6667 5.35498 16.2623 4.54634 15.4537C3.73769 14.6451 3.33337 13.6605 3.33337 12.5C3.33337 11.9444 3.43831 11.4136 3.64819 10.9074C3.85807 10.4012 4.16053 9.95062 4.5556 9.55555L9.5556 4.55555C9.95066 4.16049 10.4013 3.85802 10.9074 3.64815C11.4136 3.43827 11.9445 3.33333 12.5 3.33333C13.6605 3.33333 14.6451 3.73765 15.4537 4.5463C16.2624 5.35494 16.6667 6.3395 16.6667 7.5C16.6667 8.05555 16.5618 8.58642 16.3519 9.09259C16.142 9.59876 15.8395 10.0494 15.4445 10.4444L10.4445 15.4444C10.0494 15.8395 9.59881 16.142 9.09263 16.3519C8.58646 16.5617 8.0556 16.6667 7.50004 16.6667ZM12.426 11.3704L14.4074 9.40741C14.6544 9.16049 14.8457 8.87037 14.9815 8.53704C15.1173 8.2037 15.1852 7.85802 15.1852 7.5C15.1852 6.75926 14.9229 6.12654 14.3982 5.60185C13.8735 5.07716 13.2408 4.81481 12.5 4.81481C12.142 4.81481 11.7963 4.88271 11.463 5.01852C11.1297 5.15432 10.8395 5.34568 10.5926 5.59259L8.62967 7.57407L12.426 11.3704ZM7.50004 15.1852C7.85807 15.1852 8.20374 15.1173 8.53708 14.9815C8.87041 14.8457 9.16053 14.6543 9.40745 14.4074L11.3704 12.4259L7.57411 8.62963L5.59263 10.5926C5.34572 10.8395 5.15436 11.1296 5.01856 11.463C4.88276 11.7963 4.81486 12.142 4.81486 12.5C4.81486 13.2407 5.0772 13.8735 5.60189 14.3981C6.12658 14.9228 6.7593 15.1852 7.50004 15.1852Z" fill="#09090B"/>
</svg>
