<svg width="20" height="20" viewBox="0 0 20 20" fill="none" xmlns="http://www.w3.org/2000/svg">
<path d="M9.13603 17.5C8.80515 17.5 8.52022 17.3875 8.28125 17.1625C8.04228 16.9375 7.89828 16.6625 7.84926 16.3375L7.68382 15.1C7.52451 15.0375 7.37439 14.9625 7.23346 14.875C7.09252 14.7875 6.95466 14.6938 6.81985 14.5938L5.68015 15.0813C5.37377 15.2188 5.0674 15.2313 4.76103 15.1188C4.45466 15.0063 4.21569 14.8063 4.04412 14.5188L3.18015 12.9813C3.00858 12.6938 2.95956 12.3875 3.03309 12.0625C3.10662 11.7375 3.27206 11.4688 3.52941 11.2563L4.50368 10.5063C4.49142 10.4188 4.48529 10.3344 4.48529 10.2531V9.74688C4.48529 9.66563 4.49142 9.58125 4.50368 9.49375L3.52941 8.74375C3.27206 8.53125 3.10662 8.2625 3.03309 7.9375C2.95956 7.6125 3.00858 7.30625 3.18015 7.01875L4.04412 5.48125C4.21569 5.19375 4.45466 4.99375 4.76103 4.88125C5.0674 4.76875 5.37377 4.78125 5.68015 4.91875L6.81985 5.40625C6.95466 5.30625 7.09559 5.2125 7.24265 5.125C7.38971 5.0375 7.53677 4.9625 7.68382 4.9L7.84926 3.6625C7.89828 3.3375 8.04228 3.0625 8.28125 2.8375C8.52022 2.6125 8.80515 2.5 9.13603 2.5H10.864C11.1949 2.5 11.4798 2.6125 11.7188 2.8375C11.9577 3.0625 12.1017 3.3375 12.1507 3.6625L12.3162 4.9C12.4755 4.9625 12.6256 5.0375 12.7665 5.125C12.9075 5.2125 13.0453 5.30625 13.1801 5.40625L14.3199 4.91875C14.6262 4.78125 14.9326 4.76875 15.239 4.88125C15.5453 4.99375 15.7843 5.19375 15.9559 5.48125L16.8199 7.01875C16.9914 7.30625 17.0404 7.6125 16.9669 7.9375C16.8934 8.2625 16.7279 8.53125 16.4706 8.74375L15.4963 9.49375C15.5086 9.58125 15.5147 9.66563 15.5147 9.74688V10.2531C15.5147 10.3344 15.5025 10.4188 15.4779 10.5063L16.4522 11.2563C16.7096 11.4688 16.875 11.7375 16.9485 12.0625C17.0221 12.3875 16.973 12.6938 16.8015 12.9813L15.9191 14.5188C15.7475 14.8063 15.5086 15.0063 15.2022 15.1188C14.8958 15.2313 14.5895 15.2188 14.2831 15.0813L13.1801 14.5938C13.0453 14.6938 12.9044 14.7875 12.7574 14.875C12.6103 14.9625 12.4632 15.0375 12.3162 15.1L12.1507 16.3375C12.1017 16.6625 11.9577 16.9375 11.7188 17.1625C11.4798 17.3875 11.1949 17.5 10.864 17.5H9.13603ZM9.26471 16H10.7169L10.9743 14.0125C11.3542 13.9125 11.7065 13.7656 12.0312 13.5719C12.356 13.3781 12.6532 13.1438 12.9228 12.8688L14.7426 13.6375L15.4596 12.3625L13.8787 11.1438C13.94 10.9688 13.9828 10.7844 14.0074 10.5906C14.0319 10.3969 14.0441 10.2 14.0441 10C14.0441 9.8 14.0319 9.60313 14.0074 9.40938C13.9828 9.21563 13.94 9.03125 13.8787 8.85625L15.4596 7.6375L14.7426 6.3625L12.9228 7.15C12.6532 6.8625 12.356 6.62188 12.0312 6.42813C11.7065 6.23438 11.3542 6.0875 10.9743 5.9875L10.7353 4H9.28309L9.02574 5.9875C8.64583 6.0875 8.2935 6.23438 7.96875 6.42813C7.644 6.62188 7.34681 6.85625 7.07721 7.13125L5.25735 6.3625L4.54044 7.6375L6.12132 8.8375C6.06005 9.025 6.01716 9.2125 5.99265 9.4C5.96814 9.5875 5.95588 9.7875 5.95588 10C5.95588 10.2 5.96814 10.3938 5.99265 10.5813C6.01716 10.7688 6.06005 10.9563 6.12132 11.1438L4.54044 12.3625L5.25735 13.6375L7.07721 12.85C7.34681 13.1375 7.644 13.3781 7.96875 13.5719C8.2935 13.7656 8.64583 13.9125 9.02574 14.0125L9.26471 16ZM10.0368 12.625C10.7475 12.625 11.3542 12.3688 11.8566 11.8563C12.3591 11.3438 12.6103 10.725 12.6103 10C12.6103 9.275 12.3591 8.65625 11.8566 8.14375C11.3542 7.63125 10.7475 7.375 10.0368 7.375C9.31373 7.375 8.70404 7.63125 8.20772 8.14375C7.7114 8.65625 7.46324 9.275 7.46324 10C7.46324 10.725 7.7114 11.3438 8.20772 11.8563C8.70404 12.3688 9.31373 12.625 10.0368 12.625Z" fill="#09090B"/>
</svg>
