<svg width="20" height="20" viewBox="0 0 20 20" fill="none" xmlns="http://www.w3.org/2000/svg">
<path d="M5.5 18C5.0875 18 4.73438 17.8477 4.44063 17.5431C4.14687 17.2386 4 16.8724 4 16.4447V8.66829C4 8.24058 4.14687 7.87444 4.44063 7.56987C4.73438 7.26529 5.0875 7.113 5.5 7.113H7C7.2125 7.113 7.39063 7.18753 7.53438 7.33657C7.67813 7.48562 7.75 7.67031 7.75 7.89064C7.75 8.11098 7.67813 8.29567 7.53438 8.44471C7.39063 8.59376 7.2125 8.66829 7 8.66829H5.5V16.4447H14.5V8.66829H13C12.7875 8.66829 12.6094 8.59376 12.4656 8.44471C12.3219 8.29567 12.25 8.11098 12.25 7.89064C12.25 7.67031 12.3219 7.48562 12.4656 7.33657C12.6094 7.18753 12.7875 7.113 13 7.113H14.5C14.9125 7.113 15.2656 7.26529 15.5594 7.56987C15.8531 7.87444 16 8.24058 16 8.66829V16.4447C16 16.8724 15.8531 17.2386 15.5594 17.5431C15.2656 17.8477 14.9125 18 14.5 18H5.5ZM9.46563 13.1106C9.32188 12.9615 9.25 12.7768 9.25 12.5565V4.64399L8.575 5.34386C8.425 5.49939 8.25 5.57392 8.05 5.56744C7.85 5.56096 7.675 5.47995 7.525 5.32442C7.3875 5.16889 7.31563 4.98744 7.30938 4.78007C7.30313 4.5727 7.375 4.39125 7.525 4.23572L9.475 2.21385C9.55 2.13609 9.63125 2.081 9.71875 2.0486C9.80625 2.0162 9.9 2 10 2C10.1 2 10.1938 2.0162 10.2813 2.0486C10.3688 2.081 10.45 2.13609 10.525 2.21385L12.475 4.23572C12.6125 4.37829 12.6813 4.5565 12.6813 4.77035C12.6813 4.9842 12.6125 5.16889 12.475 5.32442C12.325 5.47995 12.1469 5.55772 11.9406 5.55772C11.7344 5.55772 11.5563 5.47995 11.4063 5.32442L10.75 4.64399V12.5565C10.75 12.7768 10.6781 12.9615 10.5344 13.1106C10.3906 13.2596 10.2125 13.3341 10 13.3341C9.7875 13.3341 9.60938 13.2596 9.46563 13.1106Z" fill="#09090B"/>
</svg>
